<svg width="21" height="22" viewBox="0 0 21 22" fill="none" xmlns="http://www.w3.org/2000/svg">
<path d="M3.28125 5.75C3.28125 4.66269 4.16269 3.78125 5.25 3.78125H7.21875C8.30606 3.78125 9.1875 4.66269 9.1875 5.75V7.71875C9.1875 8.80606 8.30606 9.6875 7.21875 9.6875H5.25C4.16269 9.6875 3.28125 8.80606 3.28125 7.71875V5.75Z" stroke="#EEF7FF" stroke-width="1.5" stroke-linecap="round" stroke-linejoin="round"/>
<path d="M3.28125 14.2812C3.28125 13.1939 4.16269 12.3125 5.25 12.3125H7.21875C8.30606 12.3125 9.1875 13.1939 9.1875 14.2812V16.25C9.1875 17.3373 8.30606 18.2188 7.21875 18.2188H5.25C4.16269 18.2188 3.28125 17.3373 3.28125 16.25V14.2812Z" stroke="#EEF7FF" stroke-width="1.5" stroke-linecap="round" stroke-linejoin="round"/>
<path d="M11.8125 5.75C11.8125 4.66269 12.6939 3.78125 13.7812 3.78125H15.75C16.8373 3.78125 17.7188 4.66269 17.7188 5.75V7.71875C17.7188 8.80606 16.8373 9.6875 15.75 9.6875H13.7812C12.6939 9.6875 11.8125 8.80606 11.8125 7.71875V5.75Z" stroke="#EEF7FF" stroke-width="1.5" stroke-linecap="round" stroke-linejoin="round"/>
<path d="M11.8125 14.2812C11.8125 13.1939 12.6939 12.3125 13.7812 12.3125H15.75C16.8373 12.3125 17.7188 13.1939 17.7188 14.2812V16.25C17.7188 17.3373 16.8373 18.2188 15.75 18.2188H13.7812C12.6939 18.2188 11.8125 17.3373 11.8125 16.25V14.2812Z" stroke="#EEF7FF" stroke-width="1.5" stroke-linecap="round" stroke-linejoin="round"/>
</svg>
