<svg width="310" height="134" viewBox="0 0 310 134" fill="none" xmlns="http://www.w3.org/2000/svg">
<g filter="url(#filter0_d_2_4907)">
<path d="M84.7998 23.4932L45.0146 85.5117L88.4141 72.1777L30.8311 131.54L51.0117 100.682L7.20117 114.591L63.5791 28.6953L44.0566 17.2227L15.4434 33.8711C16.0024 52.74 18.4372 62.6538 25.1357 79.5977L15.4434 94.3564C3.8715 70.4064 0.434408 55.348 0 25.4375L43.4814 0L84.7998 23.4932Z" fill="url(#paint0_linear_2_4907)"/>
<path d="M87.0184 25.7111C86.9503 43.5427 85.9239 52.9303 81.4871 69.2745L63.7713 75.2716C67.2617 66.4455 68.5173 61.5743 70.2332 51.6134L87.0184 25.7111Z" fill="#03509F"/>
<path d="M31.7137 122.042L25.5667 112.535L41.2181 107.944L31.7137 122.042Z" fill="#00418D"/>
<path d="M118.553 51.8217V26.6217H122.261L131.981 40.9497H132.053L141.989 26.6217H145.625V51.8217H141.809V33.2457L133.385 45.2697H130.577L122.297 33.3177V51.8217H118.553ZM154.902 51.8217L164.874 26.6217H169.41L179.454 51.8217H175.242L167.178 30.5817H167.07L158.862 51.8217H154.902ZM160.41 46.2417V42.8577H173.802V46.2417H160.41ZM192.46 51.8217V30.0057H183.496V26.6217H205.204V30.0057H196.312V51.8217H192.46ZM209.242 51.8217L219.214 26.6217H223.75L233.794 51.8217H229.582L221.518 30.5817H221.41L213.202 51.8217H209.242ZM214.75 46.2417V42.8577H228.142V46.2417H214.75ZM116.789 96.8217V94.1937L131.585 75.0057H117.113V71.6217H136.661V74.3577L121.901 93.4377H136.913V96.8217H116.789ZM144.425 96.8217L154.397 71.6217H158.933L168.977 96.8217H164.765L156.701 75.5817H156.593L148.385 96.8217H144.425ZM149.933 91.2417V87.8577H163.325V91.2417H149.933ZM178.272 96.8217V71.6217H189.108C190.956 71.6217 192.54 71.9457 193.86 72.5937C195.18 73.2417 196.188 74.1777 196.884 75.4017C197.58 76.6257 197.928 78.1137 197.928 79.8657C197.928 81.6177 197.568 83.1417 196.848 84.4377C196.128 85.7097 195.108 86.6937 193.788 87.3897C192.468 88.0857 190.908 88.4337 189.108 88.4337H182.052L182.088 96.8217H178.272ZM182.088 85.0497H188.64C190.344 85.0497 191.664 84.6297 192.6 83.7897C193.536 82.9257 194.004 81.6417 194.004 79.9377C194.004 78.1857 193.536 76.9257 192.6 76.1577C191.664 75.3897 190.344 75.0057 188.64 75.0057H182.088V85.0497ZM208.184 96.8217V71.6217H212V82.1337H225.86V71.6217H229.676V96.8217H225.86V85.4817H212V96.8217H208.184ZM241.859 96.8217V71.6217H245.675V96.8217H241.859ZM257.849 96.8217V71.6217H268.829C270.653 71.6217 272.225 71.9217 273.545 72.5217C274.865 73.0977 275.885 73.9377 276.605 75.0417C277.349 76.1457 277.721 77.5017 277.721 79.1097C277.721 80.3817 277.493 81.5097 277.037 82.4937C276.581 83.4777 275.921 84.3057 275.057 84.9777C274.217 85.6257 273.185 86.1297 271.961 86.4897C270.737 86.8257 269.345 86.9937 267.785 86.9937H261.665V96.8217H257.849ZM274.697 96.8217L268.217 86.3817L271.853 85.5897L278.981 96.8217H274.697ZM261.665 83.6457H268.577C270.233 83.6457 271.517 83.2617 272.429 82.4937C273.365 81.7017 273.833 80.5737 273.833 79.1097C273.833 77.7177 273.365 76.6857 272.429 76.0137C271.517 75.3417 270.197 75.0057 268.469 75.0057H261.665V83.6457ZM288.957 96.8217V71.6217H307.497V75.0057H292.773V82.2417H306.057V85.6257H292.773V93.4377H307.749V96.8217H288.957Z" fill="#0458A9"/>
</g>
<defs>
<filter id="filter0_d_2_4907" x="0" y="0" width="309.749" height="133.54" filterUnits="userSpaceOnUse" color-interpolation-filters="sRGB">
<feFlood flood-opacity="0" result="BackgroundImageFix"/>
<feColorMatrix in="SourceAlpha" type="matrix" values="0 0 0 0 0 0 0 0 0 0 0 0 0 0 0 0 0 0 127 0" result="hardAlpha"/>
<feOffset dx="2" dy="2"/>
<feComposite in2="hardAlpha" operator="out"/>
<feColorMatrix type="matrix" values="0 0 0 0 1 0 0 0 0 1 0 0 0 0 1 0 0 0 0.59 0"/>
<feBlend mode="normal" in2="BackgroundImageFix" result="effect1_dropShadow_2_4907"/>
<feBlend mode="normal" in="SourceGraphic" in2="effect1_dropShadow_2_4907" result="shape"/>
</filter>
<linearGradient id="paint0_linear_2_4907" x1="85.9771" y1="14.5669" x2="20.5907" y2="28.1753" gradientUnits="userSpaceOnUse">
<stop stop-color="#1097F4"/>
<stop offset="1" stop-color="#03509F"/>
</linearGradient>
</defs>
</svg>
