<svg width="116" height="66" viewBox="0 0 116 66" fill="none" xmlns="http://www.w3.org/2000/svg">
<g filter="url(#filter0_d_2261_279)">
<rect x="56" y="6" width="50" height="50" rx="25" fill="#EEF7FF"/>
</g>
<g filter="url(#filter1_d_2261_279)">
<rect x="6" y="6" width="50" height="50" rx="25" fill="#EEF7FF"/>
</g>
<g filter="url(#filter2_d_2261_279)">
<rect x="31" y="6" width="50" height="50" rx="25" fill="white"/>
<path fill-rule="evenodd" clip-rule="evenodd" d="M43 19.4803L55.7866 12L67.9371 18.9086L56.2375 37.1465L69 33.2251L52.0666 50.6819L58.0009 41.6073L45.1177 45.6977L61.6968 20.4385L55.9557 17.0647L47.5413 21.9604C47.7057 27.5092 48.4219 30.4245 50.3918 35.4072L47.5413 39.7473C44.1384 32.7043 43.1277 28.2761 43 19.4803Z" fill="url(#paint0_linear_2261_279)"/>
<path fill-rule="evenodd" clip-rule="evenodd" d="M68.5894 19.5609L63.6535 27.1781C63.1489 30.1073 62.7797 31.5396 61.7532 34.135L66.9629 32.3716C68.2676 27.5652 68.5694 24.8046 68.5894 19.5609Z" fill="#03509F"/>
<path fill-rule="evenodd" clip-rule="evenodd" d="M50.5185 45.0931L55.1213 43.743L52.3263 47.8887L50.5185 45.0931Z" fill="#00418D"/>
</g>
<defs>
<filter id="filter0_d_2261_279" x="50" y="0" width="66" height="66" filterUnits="userSpaceOnUse" color-interpolation-filters="sRGB">
<feFlood flood-opacity="0" result="BackgroundImageFix"/>
<feColorMatrix in="SourceAlpha" type="matrix" values="0 0 0 0 0 0 0 0 0 0 0 0 0 0 0 0 0 0 127 0" result="hardAlpha"/>
<feOffset dx="2" dy="2"/>
<feGaussianBlur stdDeviation="4"/>
<feComposite in2="hardAlpha" operator="out"/>
<feColorMatrix type="matrix" values="0 0 0 0 0 0 0 0 0 0 0 0 0 0 0 0 0 0 0.15 0"/>
<feBlend mode="normal" in2="BackgroundImageFix" result="effect1_dropShadow_2261_279"/>
<feBlend mode="normal" in="SourceGraphic" in2="effect1_dropShadow_2261_279" result="shape"/>
</filter>
<filter id="filter1_d_2261_279" x="0" y="0" width="66" height="66" filterUnits="userSpaceOnUse" color-interpolation-filters="sRGB">
<feFlood flood-opacity="0" result="BackgroundImageFix"/>
<feColorMatrix in="SourceAlpha" type="matrix" values="0 0 0 0 0 0 0 0 0 0 0 0 0 0 0 0 0 0 127 0" result="hardAlpha"/>
<feOffset dx="2" dy="2"/>
<feGaussianBlur stdDeviation="4"/>
<feComposite in2="hardAlpha" operator="out"/>
<feColorMatrix type="matrix" values="0 0 0 0 0 0 0 0 0 0 0 0 0 0 0 0 0 0 0.15 0"/>
<feBlend mode="normal" in2="BackgroundImageFix" result="effect1_dropShadow_2261_279"/>
<feBlend mode="normal" in="SourceGraphic" in2="effect1_dropShadow_2261_279" result="shape"/>
</filter>
<filter id="filter2_d_2261_279" x="25" y="0" width="66" height="66" filterUnits="userSpaceOnUse" color-interpolation-filters="sRGB">
<feFlood flood-opacity="0" result="BackgroundImageFix"/>
<feColorMatrix in="SourceAlpha" type="matrix" values="0 0 0 0 0 0 0 0 0 0 0 0 0 0 0 0 0 0 127 0" result="hardAlpha"/>
<feOffset dx="2" dy="2"/>
<feGaussianBlur stdDeviation="4"/>
<feComposite in2="hardAlpha" operator="out"/>
<feColorMatrix type="matrix" values="0 0 0 0 0 0 0 0 0 0 0 0 0 0 0 0 0 0 0.15 0"/>
<feBlend mode="normal" in2="BackgroundImageFix" result="effect1_dropShadow_2261_279"/>
<feBlend mode="normal" in="SourceGraphic" in2="effect1_dropShadow_2261_279" result="shape"/>
</filter>
<linearGradient id="paint0_linear_2261_279" x1="68.2834" y1="16.2837" x2="49.0551" y2="20.2855" gradientUnits="userSpaceOnUse">
<stop stop-color="#1097F4"/>
<stop offset="1" stop-color="#03509F"/>
</linearGradient>
</defs>
</svg>
