<svg width="18" height="18" viewBox="0 0 18 18" fill="none" xmlns="http://www.w3.org/2000/svg">
<path fill-rule="evenodd" clip-rule="evenodd" d="M9 3C7.64412 3.00015 6.32828 3.45954 5.26692 4.30329C4.20556 5.14704 3.46127 6.3254 3.15537 7.64631C2.84946 8.96723 2.99998 10.3528 3.58238 11.5772C4.16478 12.8017 5.14473 13.7927 6.3625 14.3889C7.58028 14.9851 8.96407 15.1512 10.2884 14.8602C11.6126 14.5692 12.7993 13.8382 13.655 12.7865C14.5106 11.7347 14.9848 10.4241 15.0003 9.06832C15.0157 7.71253 14.5715 6.39149 13.74 5.3205L9.53025 9.53025C9.3888 9.66687 9.19935 9.74246 9.0027 9.74076C8.80605 9.73905 8.61794 9.66017 8.47889 9.52111C8.33983 9.38206 8.26095 9.19395 8.25924 8.9973C8.25754 8.80065 8.33313 8.6112 8.46975 8.46975L13.2375 3.702C13.3078 3.63159 13.3914 3.57573 13.4833 3.53762C13.5753 3.49951 13.6738 3.47989 13.7734 3.47989C13.8729 3.47989 13.9715 3.49951 14.0634 3.53762C14.1554 3.57573 14.2389 3.63159 14.3092 3.702C15.005 4.39756 15.5566 5.22357 15.9325 6.1327C16.3085 7.04183 16.5013 8.01621 16.5 9C16.5 13.1422 13.1423 16.5 9 16.5C4.85775 16.5 1.5 13.1422 1.5 9C1.5 4.85775 4.85775 1.5 9 1.5C9.7215 1.5 10.4205 1.602 11.0828 1.79325C11.2739 1.84835 11.4353 1.97713 11.5315 2.15125C11.6278 2.32538 11.6508 2.5306 11.5958 2.72175C11.5407 2.9129 11.4119 3.07434 11.2377 3.17055C11.0636 3.26675 10.8584 3.28985 10.6672 3.23475C10.1253 3.07853 9.56402 2.9995 9 3Z" fill="black"/>
</svg>
