<svg width="18" height="18" viewBox="0 0 18 18" fill="none" xmlns="http://www.w3.org/2000/svg">
<path d="M7.75694 2.95502C7.82475 2.54818 8.17676 2.24998 8.58921 2.24998H9.40969C9.82215 2.24998 10.1741 2.54818 10.242 2.95502L10.3537 3.62538C10.4067 3.94358 10.6414 4.19877 10.9393 4.32247C11.2374 4.44623 11.5797 4.4297 11.8423 4.24211L12.3955 3.84699C12.7311 3.60725 13.1909 3.6453 13.4825 3.93695L14.0627 4.51711C14.3543 4.80877 14.3924 5.26852 14.1526 5.60415L13.7574 6.15753C13.5698 6.42007 13.5533 6.76223 13.677 7.06021C13.8007 7.35807 14.0558 7.59271 14.3739 7.64573L15.0444 7.75748C15.4513 7.82529 15.7495 8.17729 15.7495 8.58975V9.41022C15.7495 9.82268 15.4513 10.1747 15.0444 10.2425L14.374 10.3542C14.0558 10.4073 13.8007 10.6419 13.677 10.9399C13.5532 11.2379 13.5697 11.5802 13.7573 11.8428L14.1524 12.3959C14.3921 12.7315 14.3541 13.1913 14.0624 13.4829L13.4823 14.0631C13.1906 14.3547 12.7308 14.3928 12.3952 14.153L11.842 13.7579C11.5794 13.5703 11.2373 13.5538 10.9393 13.6775C10.6414 13.8012 10.4067 14.0563 10.3537 14.3745L10.242 15.0449C10.1741 15.4518 9.82215 15.75 9.40969 15.75H8.58921C8.17676 15.75 7.82475 15.4518 7.75694 15.0449L7.64522 14.3746C7.59218 14.0564 7.35749 13.8012 7.05957 13.6775C6.76151 13.5538 6.41926 13.5703 6.15665 13.7579L5.60344 14.153C5.2678 14.3927 4.80805 14.3547 4.51639 14.063L3.93623 13.4829C3.64458 13.1912 3.60653 12.7315 3.84627 12.3958L4.24154 11.8425C4.42907 11.5799 4.44561 11.2378 4.32189 10.9398C4.19823 10.6419 3.9431 10.4073 3.62497 10.3542L2.95449 10.2425C2.54764 10.1747 2.24945 9.82268 2.24945 9.41022V8.58975C2.24945 8.17729 2.54764 7.82529 2.95449 7.75748L3.62484 7.64575C3.94305 7.59272 4.19824 7.35802 4.32194 7.06009C4.4457 6.76202 4.42917 6.41976 4.24158 6.15714L3.84656 5.60411C3.60682 5.26848 3.64487 4.80872 3.93653 4.51707L4.51669 3.9369C4.80834 3.64525 5.2681 3.6072 5.60373 3.84694L6.15693 4.24208C6.41948 4.42962 6.76166 4.44615 7.05965 4.32243C7.35753 4.19876 7.59218 3.94362 7.6452 3.62548L7.75694 2.95502Z" stroke="#0F172A" stroke-width="1.5" stroke-linecap="round" stroke-linejoin="round"/>
<path d="M11.25 9C11.25 10.2426 10.2426 11.25 8.99997 11.25C7.75733 11.25 6.74997 10.2426 6.74997 9C6.74997 7.75736 7.75733 6.75 8.99997 6.75C10.2426 6.75 11.25 7.75736 11.25 9Z" stroke="#0F172A" stroke-width="1.5" stroke-linecap="round" stroke-linejoin="round"/>
</svg>
